Coordinates
version=1
nRows=21
nColumns=22
inDegrees=yes

Units are S.I. units (second, meters, Newtons, ...)
If the header above contains a line with 'inDegrees', this indicates whether rotational values are in degrees (yes) or radians (no).

endheader
time	pelvis_tilt	pelvis_list	pelvis_rotation	pelvis_tx	pelvis_ty	pelvis_tz	hip_flexion_r	hip_adduction_r	hip_rotation_r	knee_angle_r	ankle_angle_r	subtalar_angle_r	hip_flexion_l	hip_adduction_l	hip_rotation_l	knee_angle_l	ankle_angle_l	subtalar_angle_l	lumbar_extension	lumbar_bending	lumbar_rotation
      1.46000000	     -2.77592981	     -2.75664916	     -6.01598265	     -1.06296855	      0.92793590	     -0.11119699	     -0.28716707	      0.14825391	      4.11600216	     -7.07335248	      6.91770348	      3.41013051	      3.09507178	     -4.49190601	    -14.02102050	    -16.75880534	     13.07746657	      0.99228208	     -4.13317802	     -1.78018928	     -1.42164572
      1.47000000	     -2.87168828	     -2.79272449	     -5.86513715	     -1.06196473	      0.92750360	     -0.11284169	      0.03486355	      0.11473698	      3.81431888	     -7.65213872	      7.19266139	      3.48879641	      3.30242953	     -4.45663174	    -13.84416155	    -17.04728303	     13.29591052	      0.87808945	     -4.08186860	     -1.67952693	     -1.51008297
      1.48000000	     -2.93288568	     -2.80337732	     -5.71867547	     -1.06090129	      0.92708674	     -0.11453559	      0.37982772	      0.04927088	      3.51156184	     -8.34701041	      7.52882389	      3.55235290	      3.44586597	     -4.38508030	    -13.71108593	    -17.29003554	     13.51958733	      0.80418575	     -4.06362771	     -1.61799294	     -1.59174051
      1.49000000	     -3.07063190	     -2.78500015	     -5.58764589	     -1.05985382	      0.92653914	     -0.11629263	      0.90313807	     -0.04091894	      3.19528133	     -9.21194766	      7.85266506	      3.61354746	      3.65692148	     -4.27691206	    -13.53844351	    -17.50021856	     13.71013120	      0.69953187	     -3.95376549	     -1.57863546	     -1.65765572
      1.50000000	     -3.15008120	     -2.72222254	     -5.46977216	     -1.05875149	      0.92600521	     -0.11809998	      1.43916754	     -0.18691122	      2.89782851	    -10.21539862	      8.27506319	      3.65120107	      3.78856074	     -4.10966926	    -13.40338797	    -17.68529364	     13.90931998	      0.64048099	     -3.90741268	     -1.59890082	     -1.73205243
      1.51000000	     -3.23069109	     -2.61197482	     -5.36416655	     -1.05762721	      0.92539734	     -0.11996067	      2.06872390	     -0.38453318	      2.63618268	    -11.38613566	      8.73747487	      3.66617059	      3.91298564	     -3.88561913	    -13.28150611	    -17.85284934	     14.10200445	      0.58596714	     -3.85849428	     -1.67386088	     -1.81430239
      1.52000000	     -3.30411104	     -2.45152225	     -5.27678082	     -1.05646536	      0.92470949	     -0.12186104	      2.78796902	     -0.63504577	      2.41953190	    -12.73420656	      9.22864392	      3.65041824	      4.01930016	     -3.60118089	    -13.18295054	    -18.00293464	     14.30073397	      0.52887707	     -3.81560754	     -1.80772920	     -1.90984794
      1.53000000	     -3.35345269	     -2.22680336	     -5.20443346	     -1.05528577	      0.92394789	     -0.12380106	      3.58301533	     -0.95183905	      2.27348982	    -14.26238555	      9.76161242	      3.60025719	      4.09817433	     -3.23865358	    -13.08514348	    -18.14709455	     14.49044613	      0.47266622	     -3.80228243	     -2.02083054	     -2.00759591
      1.54000000	     -3.38110011	     -1.93905647	     -5.14327607	     -1.05409954	      0.92308809	     -0.12577980	      4.45648638	     -1.32968581	      2.21982355	    -15.97269222	     10.30524553	      3.50418167	      4.16567355	     -2.80469909	    -13.00369232	    -18.31030467	     14.69857035	      0.40190389	     -3.82214727	     -2.30909748	     -2.12089934
      1.55000000	     -3.35757286	     -1.58598372	     -5.10454106	     -1.05286261	      0.92218082	     -0.12776313	      5.37907920	     -1.76810716	      2.26209189	    -17.87319846	     10.85113379	      3.37519225	      4.15778383	     -2.28736663	    -12.92626092	    -18.43109227	     14.86410846	      0.34108915	     -3.90361874	     -2.67993801	     -2.24053614
      1.56000000	     -3.29830615	     -1.17449707	     -5.08061966	     -1.05162419	      0.92118754	     -0.12973574	      6.36903631	     -2.25074168	      2.40984308	    -19.96418975	     11.35831934	      3.19360900	      4.12840297	     -1.70676166	    -12.86938533	    -18.58079640	     15.04636337	      0.26165160	     -4.03839691	     -3.12626107	     -2.37887096
      1.57000000	     -3.18777486	     -0.71452579	     -5.07494645	     -1.05038254	      0.92013997	     -0.13167999	      7.40884232	     -2.76366842	      2.65726424	    -22.24432588	     11.79582514	      2.96222867	      4.05361734	     -1.07180301	    -12.83405147	    -18.74443757	     15.23392264	      0.16953974	     -4.24791487	     -3.63699188	     -2.53716863
      1.58000000	     -3.02935416	     -0.21732255	     -5.08860317	     -1.04913519	      0.91904814	     -0.13356233	      8.49859403	     -3.28705805	      2.99773952	    -24.70761225	     12.13388721	      2.67248715	      3.93810771	     -0.39735748	    -12.82051473	    -18.92614302	     15.43573914	      0.05634885	     -4.52726852	     -4.20127219	     -2.72297055
      1.59000000	     -2.75522199	      0.30344931	     -5.12881379	     -1.04783046	      0.91803684	     -0.13537078	      9.55120469	     -3.81256663	      3.41108098	    -27.33089362	     12.37507796	      2.40894385	      3.67836373	      0.31632917	    -12.80265835	    -19.07137146	     15.62982369	      0.00701515	     -4.95492469	     -4.80726661	     -2.91722552
      1.60000000	     -2.51485200	      0.83048364	     -5.18485953	     -1.04658621	      0.91691872	     -0.13709293	     10.75308308	     -4.30465306	      3.85221942	    -30.14259617	     12.36868487	      1.98623948	      3.50158299	      1.01299401	    -12.86828438	    -19.30005637	     15.80412701	     -0.16152636	     -5.36476035	     -5.42065975	     -3.15505980
      1.61000000	     -2.14695355	      1.34183079	     -5.27343980	     -1.04524560	      0.91596641	     -0.13870478	     11.88072194	     -4.75435860	      4.33583366	    -33.06212451	     12.19686953	      1.62983344	      3.14163892	      1.71778369	    -12.86466014	    -19.45026421	     16.00606348	     -0.23362498	     -5.93162067	     -6.03349303	     -3.37130723
      1.62000000	     -1.81684552	      1.81877631	     -5.36153035	     -1.04392930	      0.91496460	     -0.14022619	     13.12610082	     -5.13082829	      4.79248663	    -36.09855210	     11.79783626	      1.09302721	      2.87043630	      2.35721148	    -12.95104446	    -19.69859448	     16.20150060	     -0.43611903	     -6.47483035	     -6.60391350	     -3.65535612
      1.63000000	     -1.38195373	      2.25009366	     -5.47576210	     -1.04248590	      0.91420369	     -0.14163748	     14.28359102	     -5.43015173	      5.26965289	    -39.15112328	     11.13674977	      0.67459754	      2.42726269	      2.97341118	    -12.96950145	    -19.84648251	     16.36703058	     -0.51266275	     -7.14248735	     -7.13250245	     -3.93892783
      1.64000000	     -0.99757449	      2.62466625	     -5.58182404	     -1.04099532	      0.91343249	     -0.14296234	     15.53053821	     -5.64087197	      5.67693040	    -42.22744747	     10.34961280	      0.09918504	      2.06575763	      3.50434031	    -13.04688786	    -20.06767318	     16.54626880	     -0.69861909	     -7.76043465	     -7.59008873	     -4.27151276
      1.65000000	     -0.58815977	      2.91494382	     -5.68564841	     -1.03935622	      0.91286513	     -0.14419264	     16.73042023	     -5.73236887	      6.04957171	    -45.21941015	      9.35403946	     -0.41217777	      1.62803440	      3.95480023	    -13.07709711	    -20.22207289	     16.69929925	     -0.83110498	     -8.40798580	     -7.95062866	     -4.63163874
      1.66000000	     -0.20287733	      3.11300773	     -5.77179556	     -1.03756406	      0.91243075	     -0.14536324	     17.92313304	     -5.70583525	      6.34072885	    -48.09161661	      8.25168994	     -0.90339759	      1.18543476	      4.30470580	    -13.07982614	    -20.35410744	     16.84365089	     -0.96041735	     -9.02715163	     -8.19495454	     -5.00847109
